<?xml version="1.0" standalone="no"?><!DOCTYPE svg PUBLIC "-//W3C//DTD SVG 1.1//EN" "http://www.w3.org/Graphics/SVG/1.1/DTD/svg11.dtd"><svg t="1730603734962" class="icon" viewBox="0 0 1024 1024" version="1.1" xmlns="http://www.w3.org/2000/svg" p-id="2455" xmlns:xlink="http://www.w3.org/1999/xlink" width="200" height="200"><path d="M432.88873355 854.77661969h184.56967639a79.09838032 79.09838032 0 0 1-79.09838113 79.09838031h-26.37291494a79.09838032 79.09838032 0 0 1-79.09838032-79.09838031z m274.21722235-235.2178927v-265.76567029c0-107.75219622-87.35646313-195.12902472-195.11884203-195.12902472s-195.11884204 87.37682849-195.11884205 195.12902472v265.76567029L205.6234458 759.85449009h612.72733612zM511.98711387 90.125c145.61107663 0 263.66805669 118.04679739 263.66805669 263.66805669v241.91803813l116.75360797 147.18937857a52.73564804 52.73564804 0 0 1-41.31077866 85.53377856H172.90677588a52.73564804 52.73564804 0 0 1-41.31077948-85.53377856l116.72306075-147.18937857V353.79305669C248.31905715 208.17179739 366.37603806 90.125 511.98711387 90.125z" fill="#2c2c2c" p-id="2456"></path></svg>