<svg width="24" height="24" viewBox="0 0 24 24" fill="none" xmlns="http://www.w3.org/2000/svg">
<path d="M14.79 3.7955C14.9714 3.61166 15.2168 3.50511 15.475 3.49816C15.7331 3.4912 15.9839 3.58439 16.1749 3.7582C16.3659 3.932 16.4823 4.17296 16.4996 4.43062C16.517 4.68828 16.434 4.94266 16.268 5.1405L16.21 5.2045L9.414 12.054L16.204 18.79C16.3816 18.9662 16.4867 19.2026 16.4986 19.4526C16.5104 19.7025 16.4282 19.9478 16.268 20.14L16.21 20.2045C16.0337 20.3821 15.7973 20.4871 15.5474 20.4988C15.2974 20.5106 15.0522 20.4282 14.86 20.268L14.7955 20.21L7.2955 12.77C7.11795 12.5937 7.01293 12.3573 7.00118 12.1074C6.98942 11.8574 7.07178 11.6122 7.232 11.42L7.29 11.3555L14.79 3.7955Z" fill="currentColor" fill-opacity="0.89"/>
</svg>
