<?xml version="1.0" standalone="no"?><!DOCTYPE svg PUBLIC "-//W3C//DTD SVG 1.1//EN" "http://www.w3.org/Graphics/SVG/1.1/DTD/svg11.dtd"><svg t="1730603737183" class="icon" viewBox="0 0 1024 1024" version="1.1" xmlns="http://www.w3.org/2000/svg" p-id="2608" xmlns:xlink="http://www.w3.org/1999/xlink" width="200" height="200"><path d="M677.952 535.296a32 32 0 1 0-43.904-46.592l-164.8 155.264-79.232-75.2a32 32 0 1 0-44.032 46.464l101.184 96a32 32 0 0 0 43.968 0l186.816-176z" fill="#2c2c2c" p-id="2609"></path><path d="M704 64a32 32 0 0 1 32 32V128H832a64 64 0 0 1 64 64v640a64 64 0 0 1-64 64H192a64 64 0 0 1-64-64V192a64 64 0 0 1 64-64h96v-32a32 32 0 0 1 64 0V128h320v-32A32 32 0 0 1 704 64z m32 128v32a32 32 0 0 1-64 0V192h-320v32a32 32 0 0 1-64 0V192H192v128h640V192h-96zM832 384H192v448h640V384z" fill="#2c2c2c" p-id="2610"></path></svg>