<?xml version="1.0" standalone="no"?><!DOCTYPE svg PUBLIC "-//W3C//DTD SVG 1.1//EN" "http://www.w3.org/Graphics/SVG/1.1/DTD/svg11.dtd"><svg t="1730603732538" class="icon" viewBox="0 0 1026 1024" version="1.1" xmlns="http://www.w3.org/2000/svg" p-id="2302" xmlns:xlink="http://www.w3.org/1999/xlink" width="200.390625" height="200"><path d="M945.664 100.15799999c-4.608-5.632-11.264-8.704-18.432-8.704h-22.528c-220.16 0-394.24 0-522.752 30.72000001-69.12 16.384-122.88 41.472-163.84 76.288-44.032 37.888-74.24 87.04-92.16 151.03999999-11.776 42.496-17.408 119.296 6.144 195.07200001 8.704 27.648 21.504 53.76 38.912 77.824-51.2 88.064-70.656 134.144-70.656 261.11999999 0 13.312 10.752 24.576 24.576 24.57600001 13.312 0 24.576-10.752 24.576-24.57600001 0-186.88 82.432-273.92 148.48-343.55199999 4.608-4.608 9.216-9.728 13.312-13.824 50.688-50.688 108.032-93.696 165.888-123.904 53.76-28.16 104.96-43.52 144.384-43.52000001 13.312 0 24.576-10.752 24.576-24.57599999 0-13.312-10.752-24.576-24.576-24.576-47.616 0-105.472 16.896-166.912 49.15199999-62.464 32.768-123.904 78.336-177.664 132.60800001-27.136 27.136-52.736 56.832-75.264 87.552-9.728-15.36-16.896-32.256-22.016-49.15200001-21.504-70.656-13.824-138.752-5.632-167.93599999 61.952-222.208 297.472-222.72 724.48-222.208-51.2 271.872-146.432 448.512-282.624 523.776-126.464 70.144-252.416 31.744-300.544 12.288-10.24-4.096-20.48-9.216-30.208-15.36-5.632-3.072-12.288-4.096-18.432-2.56000001-6.144 1.536-11.776 5.632-14.848 11.26400001-3.584 5.632-4.096 12.288-2.56 18.432 1.536 6.144 5.632 11.776 11.264 14.848a247.72 247.72 0 0 0 36.864 18.432c27.136 11.264 71.68 25.6 125.952 30.208a410.646 410.646 0 0 0 35.84 1.536c64.512 0 125.44-15.36 180.736-46.08 70.656-38.912 131.584-102.4 181.76-188.928 58.368-100.864 102.4-235.008 130.56-397.824 0-6.656-2.048-13.824-6.656-19.45600001z" fill="#2c2c2c" p-id="2303"></path></svg>