<?xml version="1.0" standalone="no"?><!DOCTYPE svg PUBLIC "-//W3C//DTD SVG 1.1//EN" "http://www.w3.org/Graphics/SVG/1.1/DTD/svg11.dtd"><svg t="1730568208135" class="icon" viewBox="0 0 1024 1024" version="1.1" xmlns="http://www.w3.org/2000/svg" p-id="1986" xmlns:xlink="http://www.w3.org/1999/xlink" width="200" height="200"><path d="M512 219.989333c-161.01376 0-292.010667 130.99008-292.010667 292.010667 0 161.01376 130.99008 292.010667 292.010667 292.010667S804.010667 673.01376 804.010667 512 673.01376 219.989333 512 219.989333z m0 512c-121.30304 0-219.989333-98.686293-219.989333-219.989333 0-121.30304 98.686293-219.989333 219.989333-219.989333S731.989333 390.69696 731.989333 512c0 121.30304-98.686293 219.989333-219.989333 219.989333zM512 176.810667c19.851947 0 36.00384-15.005013 36.00384-33.450667V35.84c0-18.445653-16.151893-33.450667-36.00384-33.450667-19.858773 0-36.010667 15.005013-36.010667 33.450667V143.36c0 18.445653 16.151893 33.450667 36.010667 33.450667zM767.20128 291.55328a34.542933 34.542933 0 0 0 24.582827-10.185387l78.834346-78.800213a35.034453 35.034453 0 0 0 10.192214-24.59648 35.0208 35.0208 0 0 0-9.837227-24.234667l-0.395947-0.375466a34.5088 34.5088 0 0 0-24.576-10.17856c-9.284267 0-18.015573 3.611307-24.576 10.17856l-78.800213 78.848a34.542933 34.542933 0 0 0-10.185387 24.582826c0 9.284267 3.618133 18.015573 10.17856 24.582827a34.563413 34.563413 0 0 0 24.582827 10.17856zM988.16 475.989333H880.64c-18.445653 0-33.450667 16.151893-33.450667 36.010667 0 19.851947 15.005013 36.010667 33.450667 36.010667h107.52c18.445653 0 33.450667-16.15872 33.450667-36.010667 0-19.858773-15.005013-36.010667-33.450667-36.010667zM791.272107 741.778773a34.822827 34.822827 0 0 0-24.296107-9.803093 34.77504 34.77504 0 0 0-24.746667 10.246827c-13.4144 13.400747-13.605547 35.403093-0.423253 49.035946l79.271253 79.291734a35.259733 35.259733 0 0 0 24.76032 10.26048 35.26656 35.26656 0 0 0 23.83872-9.373014l0.887467-0.928426a34.781867 34.781867 0 0 0 10.246827-24.73984 35.16416 35.16416 0 0 0-10.246827-24.733014l-79.291733-79.2576zM512 847.189333c-19.858773 0-36.010667 15.005013-36.010667 33.450667v107.52c0 18.445653 16.15872 33.450667 36.010667 33.450667 19.851947 0 36.00384-15.005013 36.00384-33.450667V880.64c0-18.445653-16.151893-33.450667-36.00384-33.450667zM256.791893 732.44672a34.542933 34.542933 0 0 0-24.576 10.171733l-78.834346 78.813867a34.54976 34.54976 0 0 0-10.192214 24.59648c0 9.058987 3.433813 17.585493 9.693867 24.091307l0.539307 0.512c6.567253 6.560427 15.291733 10.17856 24.576 10.17856s18.015573-3.618133 24.576-10.17856l78.793386-78.841174c6.567253-6.567253 10.185387-15.291733 10.185387-24.582826s-3.611307-18.015573-10.17856-24.582827a34.54976 34.54976 0 0 0-24.582827-10.17856zM176.810667 512c0-19.858773-15.005013-36.010667-33.450667-36.010667H35.84C17.394347 475.989333 2.39616 492.141227 2.39616 512c0 19.851947 15.005013 36.010667 33.44384 36.010667H143.36c18.445653 0 33.450667-16.15872 33.450667-36.010667zM232.20224 281.361067a34.542933 34.542933 0 0 0 24.582827 10.185386 34.542933 34.542933 0 0 0 24.576-10.171733 34.515627 34.515627 0 0 0 10.185386-24.576c0-9.284267-3.611307-18.015573-10.17856-24.582827L202.560853 153.381547a34.542933 34.542933 0 0 0-24.59648-10.192214c-9.0112 0-17.831253 3.590827-24.2688 9.864534l-0.341333 0.36864c-6.567253 6.560427-10.17856 15.291733-10.17856 24.576s3.611307 18.008747 10.17856 24.576l78.848 78.78656z" p-id="1987"></path></svg>