<?xml version="1.0" standalone="no"?><!DOCTYPE svg PUBLIC "-//W3C//DTD SVG 1.1//EN" "http://www.w3.org/Graphics/SVG/1.1/DTD/svg11.dtd"><svg t="1730567941237" class="icon" viewBox="0 0 1024 1024" version="1.1" xmlns="http://www.w3.org/2000/svg" p-id="1986" xmlns:xlink="http://www.w3.org/1999/xlink" width="200" height="200"><path d="M925.59 739.68L684.11 256.7c-1.57-3.14-4.59-4.7-7.61-4.7s-6.04 1.57-7.61 4.7l-83.34 166.69-127.4-254.8c-2.19-4.39-6.42-6.58-10.65-6.58s-8.46 2.19-10.65 6.58L98.77 844.76c-3.96 7.92 1.8 17.24 10.65 17.24h676.15c8.85 0 14.61-9.32 10.65-17.24L749.85 752h168.13c6.33-0.01 10.44-6.66 7.61-12.32z m-224.3 58.31H193.71l253.79-507.6m270.35 397.6l-96.52-193.05L676.5 384.6 828.2 688H717.85z" p-id="1987"></path></svg>